<?xml version="1.0" encoding="UTF-8"?>
<svg width="11px" height="8px" viewBox="0 0 11 8" version="1.1" xmlns="http://www.w3.org/2000/svg" xmlns:xlink="http://www.w3.org/1999/xlink">
    <!-- Generator: Sketch 62 (91390) - https://sketch.com -->
    <title>Path</title>
    <desc>Created with Sketch.</desc>
    <g id="Page-1" stroke="none" stroke-width="1" fill="none" fill-rule="evenodd">
        <g id="Progress-Page" transform="translate(-942.000000, -1082.000000)">
            <g id="Video-Task-List-Breakdown" transform="translate(596.000000, 50.000000)">
                <g id="User-View" transform="translate(12.000000, 730.000000)">
                    <rect id="Rectangle" fill="#37474F" x="0" y="0" width="382" height="542" rx="8"></rect>
                    <g id="Example-Task-1" transform="translate(18.000000, 294.000000)">
                        <g id="Task-Buttons" transform="translate(257.000000, 3.000000)">
                            <g id="Checkmark-Button" transform="translate(56.000000, 0.000000)">
                                <circle id="Oval" fill="#F7FBFD" cx="9" cy="9" r="9"></circle>
                                <path d="M13.7318498,6.55805411 L7.44609788,12.7801525 C7.44377566,12.7825031 7.44096456,12.7840241 7.43864234,12.7862364 C7.4061313,12.8177617 7.37178694,12.8455537 7.33622036,12.8701655 C7.33047593,12.8741753 7.3247315,12.8779086 7.31898707,12.8817801 C7.28280937,12.9052858 7.2456539,12.9253348 7.20727622,12.9417888 C7.20140956,12.9442777 7.19542069,12.94649 7.18943181,12.9488405 C7.15044302,12.9643266 7.11072089,12.9769091 7.07038765,12.9852052 C7.06586544,12.9861731 7.061221,12.9865879 7.05669879,12.9874175 C7.01453223,12.9952989 6.97199899,13 6.92946576,13 C6.92934354,13 6.92909909,13 6.92897687,13 C6.92897687,13 6.92885465,13 6.92885465,13 C6.92873243,13 6.92873243,13 6.92861021,13 C6.90221027,13 6.87593255,12.9983408 6.84965484,12.9952989 C6.84268819,12.9944692 6.83596598,12.9929483 6.82899933,12.9919804 C6.80968826,12.989215 6.79025498,12.9861731 6.77118835,12.9817485 C6.76263282,12.9798127 6.75432173,12.9770474 6.74588841,12.9746968 C6.72865512,12.9699957 6.71142183,12.9651562 6.69443298,12.9592107 C6.68502189,12.9558922 6.67573302,12.9518824 6.66644416,12.9481492 C6.65079975,12.9419271 6.63527756,12.9354284 6.61999982,12.9281002 C6.60997762,12.9232608 6.60019987,12.9178683 6.59029989,12.9124758 C6.57624437,12.904871 6.56231107,12.8969897 6.54862221,12.888417 C6.53811112,12.8819184 6.52784448,12.8748667 6.51757784,12.8676767 C6.5051112,12.8589658 6.49276679,12.8499783 6.48066681,12.8404377 C6.47003351,12.8320033 6.45952242,12.8232924 6.44913356,12.8141667 C6.43801136,12.8043496 6.42713361,12.7942559 6.41637808,12.7837475 C6.40598921,12.7736539 6.39584479,12.763422 6.38594482,12.752637 C6.38178927,12.7480741 6.37726706,12.7442026 6.37323373,12.7396397 L3.23017446,9.18433271 C2.92327518,8.83713962 2.92327518,8.27466192 3.23017446,7.92746883 C3.53707374,7.58027574 4.03427257,7.58027574 4.34117185,7.92746883 L6.96417679,10.8948567 L12.69663,5.22044121 C13.0234514,4.89620075 13.5191836,4.93436296 13.8054274,5.30381733 C14.0913045,5.67354825 14.0583045,6.23478153 13.7318498,6.55805411 Z" id="Path" fill="#00ACC1" fill-rule="nonzero"></path>
                            </g>
                        </g>
                    </g>
                </g>
                <g id="Admin-View">
                    <g id="Example-Task-6" transform="translate(29.000000, 582.000000)"></g>
                </g>
            </g>
        </g>
    </g>
</svg>