<svg height='100px' width='100px'  fill="#00acc1" xmlns="http://www.w3.org/2000/svg" data-name="Layer 1" viewBox="0 0 100 100" x="0px" y="0px"><title>03</title><path d="M15.25,81.63a4,4,0,0,0,5.52,4.24l16.38-7A50.32,50.32,0,0,0,50,80.56c22.75,0,41.25-15,41.25-33.38S72.74,13.81,50,13.81,8.75,28.78,8.75,47.19A29.54,29.54,0,0,0,17.23,67.5Zm1.5-34.44c0-14,14.92-25.37,33.25-25.37S83.25,33.2,83.25,47.19,68.33,72.56,50,72.56a42.07,42.07,0,0,1-12-1.71,4,4,0,0,0-2.7.15L24.15,75.74l1.28-9.11a4,4,0,0,0-1.22-3.47C19.33,58.58,16.75,53.06,16.75,47.19Z"></path></svg>