<svg height='100px' width='100px'  fill="#90a4ae" xmlns="http://www.w3.org/2000/svg" xmlns:xlink="http://www.w3.org/1999/xlink" data-name="Layer 1" viewBox="0 0 100 100" x="0px" y="0px"><defs><style>.cls-1{fill:none;clip-rule:evenodd;}.cls-2{clip-path:url(#b);}.cls-3{clip-path:url(#a);}</style><clipPath id="b"><path class="cls-1" d="M-1187.28-816a5.65,5.65,0,0,0-5.73,5.51v48.71a5.64,5.64,0,0,0,5.73,5.5h78.1a5.63,5.63,0,0,0,5.73-5.5v-48.71a5.62,5.62,0,0,0-5.73-5.51Zm75.68,52.9-73.45-.32a1.18,1.18,0,0,1-.81-.33,1,1,0,0,1-.33-.75v-43.8a1.08,1.08,0,0,1,.33-.75,1.22,1.22,0,0,1,.81-.32l73.45.32a1.21,1.21,0,0,1,.81.32,1.06,1.06,0,0,1,.33.76v43.79a1,1,0,0,1-.33.76A1.22,1.22,0,0,1-1111.6-763.14Z"></path></clipPath><clipPath id="a"><path class="cls-1" d="M-1170.63-799.94a6.3,6.3,0,0,0-3.73-1.17h-3.73v3h3.73a1.74,1.74,0,0,1,1.87,1.49v20.9a1.74,1.74,0,0,1-1.87,1.5h-3.73v3h3.73a6.36,6.36,0,0,0,3.73-1.16,6.46,6.46,0,0,0,3.73,1.16h3.74v-3h-3.73a1.74,1.74,0,0,1-1.87-1.5v-20.9a1.74,1.74,0,0,1,1.87-1.49h3.73v-3h-3.73a6.4,6.4,0,0,0-3.74,1.17"></path></clipPath></defs><title>Drag</title><g><g data-name="Dynamicsection SC 2-Copy"><g data-name="drag drop"><path d="M64.48,2.16H3.76a2,2,0,0,0-2,2V64.89a2,2,0,0,0,2,2H27.35a2,2,0,1,0,0-4H5.78V6.22H62.44V27.79a2,2,0,0,0,4,0V4.17a2,2,0,0,0-2-2"></path><path d="M96.35,91.08A1.91,1.91,0,0,0,94.44,93v1.9h-1.9a1.91,1.91,0,0,0,0,3.81h3.81a1.91,1.91,0,0,0,1.9-1.9V93a1.91,1.91,0,0,0-1.9-1.9"></path><path d="M78.55,94.88H72.23a1.91,1.91,0,0,0,0,3.81h6.32a1.91,1.91,0,1,0,0-3.81"></path><path d="M58.24,94.88H51.92a1.91,1.91,0,1,0,0,3.81h6.32a1.91,1.91,0,0,0,0-3.81"></path><path d="M39.19,94.88H37.28V93a1.9,1.9,0,1,0-3.8,0v3.81a1.91,1.91,0,0,0,1.9,1.9h3.81a1.91,1.91,0,0,0,0-3.81"></path><path d="M35.38,60.58a1.91,1.91,0,0,0,1.9-1.9V52.36a1.9,1.9,0,1,0-3.8,0v6.32a1.89,1.89,0,0,0,1.9,1.9"></path><path d="M33.48,79a1.9,1.9,0,0,0,3.8,0V72.67a1.9,1.9,0,1,0-3.8,0Z"></path><path d="M39.19,33.92H35.38a1.9,1.9,0,0,0-1.9,1.9v3.8a1.9,1.9,0,1,0,3.8,0v-1.9h1.91a1.91,1.91,0,0,0,1.9-1.9,1.89,1.89,0,0,0-1.9-1.9"></path><path d="M58.24,33.92H51.92a1.9,1.9,0,1,0,0,3.8h6.32a1.91,1.91,0,0,0,1.9-1.9,1.89,1.89,0,0,0-1.9-1.9"></path><path d="M78.55,33.92H72.23a1.9,1.9,0,0,0,0,3.8h6.32a1.9,1.9,0,1,0,0-3.8"></path><path d="M96.35,33.92H92.54a1.9,1.9,0,0,0,0,3.8h1.9v1.9a1.91,1.91,0,1,0,3.81,0v-3.8a1.91,1.91,0,0,0-1.9-1.9"></path><path d="M96.35,70.74a1.9,1.9,0,0,0-1.91,1.9V79a1.91,1.91,0,1,0,3.81,0V72.67a1.93,1.93,0,0,0-1.9-1.93"></path><path d="M96.35,50.42a1.91,1.91,0,0,0-1.91,1.91v6.35a1.91,1.91,0,0,0,3.81,0V52.36a1.93,1.93,0,0,0-1.9-1.94"></path><path d="M82.41,64.81A1.29,1.29,0,0,1,81.52,66L71.19,69.65a3.26,3.26,0,0,0-2,2L65.57,82a1.29,1.29,0,0,1-1.23.89A1.34,1.34,0,0,1,63.08,82L52.45,54.65a1.28,1.28,0,0,1,.31-1.43,1.3,1.3,0,0,1,.92-.39,1.69,1.69,0,0,1,.5.08L81.57,63.55a1.2,1.2,0,0,1,.84,1.26"></path></g></g></g></svg>