<svg height='100px' width='100px'  fill="#90a4ae" xmlns="http://www.w3.org/2000/svg" xmlns:xlink="http://www.w3.org/1999/xlink" version="1.2" baseProfile="tiny" x="0px" y="0px" viewBox="0 0 100 100" xml:space="preserve"><path d="M12.5,85h75c1.381,0,2.5-1.119,2.5-2.5v-55c0-1.381-1.119-2.5-2.5-2.5H53.535l-9.268-9.268   C43.799,15.263,43.163,15,42.5,15h-30c-1.381,0-2.5,1.119-2.5,2.5v65C10,83.881,11.119,85,12.5,85z M15,80V40h70v40H15z M41.465,20   l9.268,9.268C51.201,29.737,51.837,30,52.5,30H85v5H15V20H41.465z"></path></svg>