<svg height='100px' width='100px'  fill="#90a4ae" xmlns:dc="http://purl.org/dc/elements/1.1/" xmlns:cc="http://creativecommons.org/ns#" xmlns:rdf="http://www.w3.org/1999/02/22-rdf-syntax-ns#" xmlns:svg="http://www.w3.org/2000/svg" xmlns="http://www.w3.org/2000/svg" xmlns:sodipodi="http://sodipodi.sourceforge.net/DTD/sodipodi-0.dtd" xmlns:inkscape="http://www.inkscape.org/namespaces/inkscape" version="1.1" x="0px" y="0px" viewBox="0 0 865.16443 747.57092" enable-background="new 0 0 2000 2000" xml:space="preserve"><path style="" d="M 62.517,0 C 28.071,0 0,28.034 0,62.5097 l 0,564.3462 c 0,17.285 13.972,31.256 31.257,31.256 4.154,0 8.119,-0.815 11.746,-2.286 3.676,1.485 7.64,2.286 11.697,2.286 l 453.03895,0 c 34.535,53.766 94.859,89.459 163.3494,89.459 107.0231,0 194.0761,-87.05 194.0761,-194.043 0,-58.08 -25.66,-110.275 -66.233,-145.867 l 58.325,-183.299 c 3.032,-9.502 1.342,-19.881 -4.534,-27.914 -5.938,-8.065 -15.283,-12.813 -25.286,-12.813 l -641.67445,0 c -13.598,0 -25.632,8.814 -29.79,21.786 l -93.455,293.764 0,-436.6752 218.798,0 0,53.8583 c 0,17.286 13.972,31.2569 31.257,31.2569 l 360.36145,0 c 17.285,0 31.257,-13.9709 31.257,-31.2569 0,-17.2853 -13.972,-31.2573 -31.257,-31.2573 l -329.10545,0 0,-22.601 C 343.828,28.034 315.822,0 281.315,0 L 62.517,0 Z m 146.155,246.1779 576.06845,0 -40.614,127.582 c -22.557,-9.195 -47.213,-14.274 -73.0381,-14.274 -106.9624,0 -194.0124,87.05 -194.0124,194.042 0,14.455 1.602,28.54 4.615,42.101 l -384.26195,0 111.243,-349.451 z m 462.41635,144.565 c 89.8001,0 162.8181,73.016 162.8181,162.785 0,89.771 -73.018,162.786 -162.8181,162.786 -89.7404,0 -162.7554,-73.015 -162.7554,-162.786 0,-89.769 73.015,-162.785 162.7554,-162.785 z m 0,45.165 c -17.2854,0 -31.2574,13.972 -31.2574,31.257 l 0,55.106 -55.106,0 c -17.286,0 -31.257,13.972 -31.257,31.257 0,17.286 13.971,31.256 31.257,31.256 l 55.106,0 0,55.137 c 0,17.285 13.972,31.258 31.2574,31.258 17.2851,0 31.2571,-13.973 31.2571,-31.258 l 0,-55.137 55.136,0 c 17.285,0 31.26,-13.97 31.26,-31.256 0,-17.285 -13.975,-31.257 -31.26,-31.257 l -55.136,0 0,-55.106 c 0,-17.285 -13.972,-31.257 -31.2571,-31.257 z" fill="#90a4ae"></path></svg>