<svg height='100px' width='100px'  fill="#00acc1" xmlns="http://www.w3.org/2000/svg" xmlns:xlink="http://www.w3.org/1999/xlink" version="1.1" x="0px" y="0px" viewBox="0 0 100 100" enable-background="new 0 0 100 100" xml:space="preserve"><g><path d="M90,34.333c0-0.999,0-2.332-0.668-3c-0.668-1-1.666-1.333-2.666-1.333H80V20c0-2-1.336-3.333-3.334-3.333H40v-3.333   C40,11.333,38.667,10,36.667,10H13.333c-2,0-3.333,1.333-3.333,3.333v60c0,0.104,0.019,0.201,0.026,0.303   c0.004,0.062,0.009,0.122,0.016,0.183c0.014,0.121,0.028,0.238,0.053,0.353c0.027,0.14,0.065,0.272,0.111,0.402   c0.314,0.922,0.99,1.59,1.917,1.897c0.155,0.055,0.313,0.1,0.475,0.131c0.021,0.004,0.044,0.006,0.066,0.008   c0.221,0.039,0.445,0.059,0.67,0.059h32.206C49.249,84.586,57.256,90,66.666,90C79.668,90,90,79.668,90,66.667   c0-5.574-1.903-10.653-5.099-14.644L90,34.333z M16.667,16.667h16.667V20c0,2,1.333,3.333,3.333,3.333h36.667V30h-50   c-1.667,0-3,1-3.333,2.666L16.667,46V16.667z M17.666,70L26,36.667h56.334l-2.883,10.422c-3.66-2.377-8.043-3.756-12.785-3.756   c-13.002,0-23.333,10.332-23.333,23.333c0,1.134,0.083,2.245,0.235,3.333L17.666,70L17.666,70z M66.666,83.333   C57.334,83.333,50,75.999,50,66.667C50,57.334,57.334,50,66.666,50c4.598,0,8.703,1.785,11.691,4.706   c0.285,0.562,0.705,1.032,1.229,1.333c2.35,2.867,3.746,6.557,3.746,10.628C83.332,75.999,75.998,83.333,66.666,83.333z"></path><path d="M76.666,63.333H70v-6.666c0-1.999-1.336-3.334-3.334-3.334s-3.334,1.335-3.334,3.334v6.666h-6.666   c-1.998,0-3.334,1.335-3.334,3.334c0,1.998,1.336,3.333,3.334,3.333h6.666v6.667c0,1.998,1.336,3.333,3.334,3.333   S70,78.665,70,76.667V70h6.666C78.664,70,80,68.665,80,66.667C80,64.668,78.664,63.333,76.666,63.333z"></path></g></svg>