<svg height='100px' width='100px'  fill="#90a4ae" xmlns:xlink="http://www.w3.org/1999/xlink" xmlns="http://www.w3.org/2000/svg" stroke-width="0.501" stroke-linejoin="bevel" fill-rule="evenodd" version="1.1" overflow="visible" viewBox="0 0 192 192" x="0px" y="0px"><g fill="none" stroke="black" font-family="Times New Roman" font-size="16" transform="scale(1 -1)"><g transform="translate(0 -192)"><g><path d="M 0,96 C 0,148.992 43.008,192 96,192 C 148.992,192 192,148.992 192,96 C 192,43.008 148.992,0 96,0 C 43.008,0 0,43.008 0,96 Z M 112.192,47.696 C 112.192,56.64 104.944,63.888 96,63.888 C 87.056,63.888 79.808,56.64 79.808,47.696 C 79.808,38.752 87.056,31.504 96,31.504 C 104.944,31.504 112.192,38.752 112.192,47.696 Z M 106.88,78.48 C 107.488,79.792 108.656,81.28 111.04,83.296 C 113.664,85.52 116.544,87.424 120.336,90.336 C 127.76,96.048 137.056,104.688 138.544,120.24 C 139.76,132.896 134.864,143.328 126.864,150.496 C 119.232,157.328 109.2,160.88 99.664,161.84 C 90.128,162.816 79.76,161.344 71.152,156.592 C 62.176,151.616 55.008,142.864 54.048,130.624 C 53.52,124.032 58.464,118.24 65.072,117.728 C 71.664,117.2 77.456,122.144 77.968,128.752 C 78.208,131.744 79.664,133.872 82.768,135.584 C 86.256,137.52 91.504,138.56 97.232,137.968 C 102.944,137.392 107.824,135.328 110.864,132.608 C 113.536,130.224 115.088,127.136 114.656,122.528 C 114.128,116.96 111.392,113.728 105.696,109.36 C 102.624,106.992 98.944,104.496 95.536,101.6 C 91.872,98.512 87.824,94.384 85.136,88.64 C 82.336,82.64 84.928,75.488 90.928,72.688 C 96.928,69.888 104.08,72.48 106.88,78.48 Z" stroke-linejoin="round" stroke-linecap="round" stroke-width="8" stroke="none" fill="#90a4ae" marker-start="none" marker-end="none" stroke-miterlimit="79.8403193612775"></path></g></g></g></svg>